<svg width="22" height="22" viewBox="0 0 22 22" fill="none" xmlns="http://www.w3.org/2000/svg">
<g clip-path="url(#clip0_65_112)">
<path fill-rule="evenodd" clip-rule="evenodd" d="M1.07601 3.13745C0.562012 4.14545 0.562012 5.46545 0.562012 8.10545V15.0205C0.562012 17.6605 0.562012 18.9805 1.07601 19.9885C1.52801 20.8754 2.24911 21.5965 3.13601 22.0485C4.14501 22.5635 5.46601 22.5635 8.10601 22.5635H15.02C17.66 22.5635 18.98 22.5635 19.988 22.0495C20.8749 21.5975 21.596 20.8764 22.048 19.9895C22.563 18.9805 22.563 17.6595 22.563 15.0195V8.10645C22.563 5.46645 22.563 4.14645 22.049 3.13845C21.597 2.25155 20.8759 1.53045 19.989 1.07845C18.98 0.564453 17.659 0.564453 15.019 0.564453H8.10601C5.46601 0.564453 4.14601 0.564453 3.13801 1.07745C2.25106 1.52939 1.52995 2.25051 1.07801 3.13745H1.07601ZM13.941 5.27745C15.448 5.36145 16.875 5.86345 18.064 6.86945C19.413 9.55145 20.126 12.5695 20.205 15.6695C19.016 17.0105 17.351 17.8495 15.606 17.8495C15.606 17.8495 15.051 17.1785 14.655 16.5915C15.685 16.3405 16.637 15.7535 17.272 14.8315C16.717 15.1665 16.162 15.5015 15.606 15.7535C14.893 16.0885 14.179 16.2565 13.466 16.4235C12.831 16.5075 12.196 16.5915 11.563 16.5915C10.928 16.5915 10.293 16.5075 9.66001 16.4235C8.94601 16.2565 8.23201 16.0885 7.51901 15.7535C6.96401 15.5015 6.40901 15.1665 5.85301 14.8315C6.48801 15.7535 7.43901 16.3405 8.47001 16.5915C8.17018 17.0232 7.85291 17.4425 7.51901 17.8485C5.77401 17.8485 4.10901 17.0105 2.91901 15.6695C2.99901 12.5695 3.71301 9.55145 5.06101 6.86945C6.25001 5.86345 7.67701 5.36145 9.18401 5.27745L9.42201 5.52845C8.07401 5.86345 6.88401 6.53445 5.77401 7.45645C7.1423 6.68581 8.65281 6.20102 10.214 6.03145C10.69 5.94745 11.087 5.94745 11.562 5.94745C12.038 5.94745 12.435 5.94745 12.911 6.03145C14.4722 6.20102 15.9827 6.68581 17.351 7.45645C16.241 6.53445 15.051 5.86345 13.703 5.52845L13.941 5.27745ZM7.44001 12.4845C7.44001 13.4065 8.15401 14.1615 8.94701 14.1615C9.74001 14.1615 10.453 13.4065 10.453 12.4845C10.453 11.5635 9.74001 10.8085 8.94701 10.8085C8.15401 10.8085 7.44001 11.5635 7.44001 12.4845ZM12.674 12.4845C12.674 13.4065 13.387 14.1615 14.18 14.1615C14.973 14.1615 15.687 13.4065 15.687 12.4845C15.687 11.5635 14.973 10.8085 14.18 10.8085C13.387 10.8085 12.674 11.5635 12.674 12.4845Z" fill="#303030"/>
</g>
<defs>
<clipPath id="clip0_65_112">
<rect width="22" height="22" fill="white"/>
</clipPath>
</defs>
</svg>
