<svg width="703" height="399" viewBox="0 0 703 399" fill="none" xmlns="http://www.w3.org/2000/svg">
<g clip-path="url(#clip0_65_122)">
<path d="M703 0H0V399H703V0Z" fill="#E0E0E0"/>
<path fill-rule="evenodd" clip-rule="evenodd" d="M338.946 217.867V179.867L372.841 198.867L338.946 217.867ZM401.527 155.989C391.541 153.267 351.5 153.267 351.5 153.267C351.5 153.267 311.459 153.267 301.473 155.989C295.964 157.488 291.625 161.902 290.153 167.508C287.477 177.668 287.477 198.867 287.477 198.867C287.477 198.867 287.477 220.065 290.153 230.226C291.625 235.831 295.964 240.246 301.473 241.745C311.459 244.467 351.5 244.467 351.5 244.467C351.5 244.467 391.541 244.467 401.527 241.745C407.036 240.246 411.375 235.831 412.847 230.226C415.523 220.065 415.523 198.867 415.523 198.867C415.523 198.867 415.523 177.668 412.847 167.508C411.375 161.902 407.036 157.488 401.527 155.989Z" fill="#C2C2C2"/>
</g>
<defs>
<clipPath id="clip0_65_122">
<rect width="703" height="399" fill="white"/>
</clipPath>
</defs>
</svg>
